# File created by Blade
# Date/Time:  Wed Jan 21 15:23:43 2015
# Frame Rate: 120.000 fps
#------------------------------------------------------
:FULLY-SPECIFIED
:DEGREES
1383
root 32.095013 31.525365 -18.247819 -168.463168 3.803476 -183.835532
Spine 7.307292 0.856448 2.103643
Head 6.815030 17.201986 -2.958797
LeftShoulder -7.716679 -24.184714 -4.753754
LeftArm -21.489400 14.545003 -76.543751
LeftForeArm 9.700033 -0.000000 31.976222
LeftHand 1.408334 -0.000000 4.792060
LeftHandThumb1 -26.253704 0.000000 33.147579
RightShoulder 0.863912 -11.441911 2.448080
RightArm 21.843642 -23.687625 48.273431
RightForeArm -27.452142 -0.000000 39.276966
RightHand 2.835481 -0.000000 2.869278
RightHandThumb1 -24.326973 -0.000000 -32.862282
LeftUpLeg -12.176805 22.563684 25.093821
LeftLeg 1.527099 -0.000000 -0.000000
LeftFoot 15.328747 24.223570 -5.778982
LeftToeBase 32.576575 -0.000000 -0.000000
RightUpLeg -46.444770 -20.145968 3.219030
RightLeg 58.482349 -0.000000 -0.000000
RightFoot -44.407783 -25.699354 19.721488
RightToeBase 24.592257 -0.000000 -0.000000
1384
root 32.071729 31.731204 -18.265525 -168.646187 3.464653 -184.106303
Spine 7.396913 0.886839 1.939724
Head 7.395661 17.123661 -2.968488
LeftShoulder -7.838821 -24.208554 -4.885622
LeftArm -21.592164 13.663633 -76.240792
LeftForeArm 9.779463 -0.000000 32.174165
LeftHand 1.296287 0.000000 4.898887
LeftHandThumb1 -26.253704 0.000000 33.147579
RightShoulder 0.831894 -11.429758 2.464607
RightArm 21.691588 -22.959784 49.028085
RightForeArm -27.122117 -0.000000 37.714276
RightHand 2.470827 -0.000000 2.659562
RightHandThumb1 -24.326973 -0.000000 -32.862282
LeftUpLeg -12.327485 22.626343 24.269337
LeftLeg 1.383085 -0.000000 -0.000000
LeftFoot 15.360964 23.254873 -5.102624
LeftToeBase 31.702501 -0.000000 -0.000000
RightUpLeg -45.538546 -20.494202 2.843479
RightLeg 57.241530 -0.000000 -0.000000
RightFoot -43.826298 -25.770219 19.620493
RightToeBase 24.457627 -0.000000 -0.000000
1385
root 32.042809 31.936756 -18.291115 -168.937001 3.135923 -184.356692
Spine 7.614637 0.915113 1.790584
Head 7.950704 17.017787 -3.010017
LeftShoulder -7.914312 -24.206834 -4.991903
LeftArm -21.655057 12.812166 -76.012066
LeftForeArm 9.771651 0.000000 32.275414
LeftHand 1.271589 -0.000000 5.169730
LeftHandThumb1 -26.253704 0.000000 33.147579
RightShoulder 0.800060 -11.280869 2.487215
RightArm 21.458703 -22.389639 49.744688
RightForeArm -26.602170 -0.000000 36.221734
RightHand 1.941483 0.000000 2.173440
RightHandThumb1 -24.326973 -0.000000 -32.862282
LeftUpLeg -12.281772 22.453378 23.517661
LeftLeg 1.222747 -0.000000 -0.000000
LeftFoot 14.941197 22.410636 -4.692014
LeftToeBase 30.357057 -0.000000 -0.000000
RightUpLeg -44.498825 -20.872480 2.435239
RightLeg 55.989625 -0.000000 -0.000000
RightFoot -43.212114 -25.803568 19.431818
RightToeBase 24.497876 -0.000000 -0.000000
1386
root 32.006102 32.143116 -18.320437 -169.222990 2.872861 -184.649621
Spine 7.810948 1.058646 1.560674
Head 8.527366 16.867293 -2.924388
LeftShoulder -7.937937 -24.233354 -5.034917
LeftArm -21.731868 11.953118 -75.842211
LeftForeArm 9.840967 -0.000000 32.242407
LeftHand 1.211879 -0.000000 5.150666
LeftHandThumb1 -26.253704 0.000000 33.147579
RightShoulder 0.632587 -11.206479 2.591172
RightArm 21.319569 -21.787697 50.398599
RightForeArm -26.291456 -0.000000 34.759887
RightHand 1.543830 -0.000000 2.087929
RightHandThumb1 -24.326973 -0.000000 -32.862282
LeftUpLeg -12.156569 22.254335 22.688928
LeftLeg 1.020427 -0.000000 -0.000000
LeftFoot 14.160604 21.728364 -4.720411
LeftToeBase 30.012228 -0.000000 -0.000000
RightUpLeg -43.453596 -21.195981 1.956276
RightLeg 54.720852 -0.000000 -0.000000
RightFoot -42.575359 -25.829742 19.288214
RightToeBase 24.424057 -0.000000 -0.000000
1387
root 31.971249 32.349746 -18.353435 -169.485815 2.558780 -184.843802
Spine 7.963534 1.090720 1.464703
Head 9.117697 16.759894 -2.971941
LeftShoulder -8.062708 -24.184325 -5.077202
LeftArm -21.769518 11.307066 -75.727898
LeftForeArm 9.729863 -0.000000 32.199003
LeftHand 1.113761 -0.000000 5.158654
LeftHandThumb1 -26.253704 0.000000 33.147579
RightShoulder 0.561509 -11.152706 2.585890
RightArm 21.151607 -20.670259 51.445213
RightForeArm -26.516626 -0.000000 33.050957
RightHand 1.501020 -0.000000 2.337136
RightHandThumb1 -24.326973 -0.000000 -32.862282
LeftUpLeg -12.060639 22.004448 21.937947
LeftLeg 0.837285 -0.000000 -0.000000
LeftFoot 13.114211 21.399496 -5.176031
LeftToeBase 28.747630 -0.000000 -0.000000
RightUpLeg -42.360716 -21.583828 1.594217
RightLeg 53.351423 -0.000000 -0.000000
RightFoot -41.919570 -25.841766 19.085254
RightToeBase 24.445394 -0.000000 -0.000000
1388
root 31.929049 32.553917 -18.388600 -169.764525 2.343762 -185.090907
Spine 8.109925 1.225971 1.255941
Head 9.730665 16.676859 -2.905255
LeftShoulder -8.036714 -24.211741 -5.064302
LeftArm -22.000073 10.587828 -75.663092
LeftForeArm 9.747893 -0.000000 32.199720
LeftHand 0.914278 -0.000000 5.076469
LeftHandThumb1 -26.253704 0.000000 33.147579
RightShoulder 0.487508 -11.079233 2.632806
RightArm 20.884322 -19.720319 52.385581
RightForeArm -26.679615 -0.000000 31.610917
RightHand 1.238143 -0.000000 2.574685
RightHandThumb1 -24.326973 -0.000000 -32.862282
LeftUpLeg -11.854191 21.721594 21.113902
LeftLeg 0.600263 -0.000000 -0.000000
LeftFoot 11.805907 21.495036 -5.960545
LeftToeBase 28.131790 -0.000000 -0.000000
RightUpLeg -41.270471 -21.870328 1.141375
RightLeg 52.003235 -0.000000 -0.000000
RightFoot -41.240562 -25.877691 18.877931
RightToeBase 24.376683 -0.000000 -0.000000
1389
root 31.887059 32.758450 -18.424515 -169.991242 2.098499 -185.240384
Spine 8.189544 1.359042 1.178925
Head 10.357663 16.545169 -2.893358
LeftShoulder -8.065791 -24.182307 -5.066963
LeftArm -22.138227 10.079875 -75.656424
LeftForeArm 9.658412 -0.000000 32.087464
LeftHand 0.866552 -0.000000 5.226003
LeftHandThumb1 -26.253704 0.000000 33.147579
RightShoulder 0.321382 -11.078694 2.708408
RightArm 20.709771 -18.897473 53.149093
RightForeArm -26.694957 -0.000000 30.311744
RightHand 0.803111 0.000000 2.726969
RightHandThumb1 -24.326973 -0.000000 -32.862282
LeftUpLeg -11.679345 21.303598 20.389292
LeftLeg 0.395067 -0.000000 -0.000000
LeftFoot 10.261200 21.821405 -6.856284
LeftToeBase 27.438855 -0.000000 -0.000000
RightUpLeg -40.182636 -22.113456 0.796618
RightLeg 50.580077 -0.000000 -0.000000
RightFoot -40.545836 -25.913794 18.765901
RightToeBase 24.335971 -0.000000 -0.000000
1390
root 31.840866 32.959013 -18.461725 -170.187222 1.886654 -185.418025
Spine 8.204133 1.490915 1.024814
Head 11.003172 16.450814 -2.807112
LeftShoulder -8.070335 -24.133364 -5.008271
LeftArm -22.296560 9.504858 -75.647373
LeftForeArm 9.832451 0.000000 31.896429
LeftHand 0.779571 0.000000 4.955597
LeftHandThumb1 -26.253704 0.000000 33.147579
RightShoulder 0.172164 -11.119641 2.794022
RightArm 20.518801 -18.021542 53.959553
RightForeArm -26.603447 0.000000 29.056356
RightHand 0.320566 -0.000000 2.631602
RightHandThumb1 -24.326973 -0.000000 -32.862282
LeftUpLeg -11.490402 20.888100 19.603538
LeftLeg 0.159340 -0.000000 -0.000000
LeftFoot 8.752892 22.200353 -7.784715
LeftToeBase 26.798284 -0.000000 -0.000000
RightUpLeg -39.103501 -22.236255 0.395534
RightLeg 49.133084 -0.000000 -0.000000
RightFoot -39.871511 -26.061275 18.644094
RightToeBase 24.250088 -0.000000 -0.000000
1391
root 31.808031 33.153081 -18.512879 -170.483618 1.830941 -185.389142
Spine 8.343112 1.830444 1.070046
Head 11.584662 16.282467 -2.791684
LeftShoulder -8.078920 -24.108349 -4.958348
LeftArm -22.472863 9.001281 -75.662583
LeftForeArm 10.069921 0.000000 31.767480
LeftHand 0.536539 -0.000000 4.713745
LeftHandThumb1 -26.253704 0.000000 33.147579
RightShoulder -0.015212 -11.114330 2.861171
RightArm 20.213242 -17.000050 54.850579
RightForeArm -26.583583 -0.000000 27.954268
RightHand 0.033656 0.000000 2.622237
RightHandThumb1 -24.326973 -0.000000 -32.862282
LeftUpLeg -11.021091 19.811672 19.264725
LeftLeg 0.008903 -0.000000 -0.000000
LeftFoot 7.060069 23.362664 -8.757297
LeftToeBase 26.438574 -0.000000 -0.000000
RightUpLeg -37.853486 -22.158652 0.156315
RightLeg 47.588787 -0.000000 -0.000000
RightFoot -39.165351 -26.249044 18.507924
RightToeBase 24.181297 -0.000000 -0.000000
1392
root 31.775319 33.342937 -18.565957 -170.759322 1.750173 -185.326415
Spine 8.446125 2.110383 1.140522
Head 12.134746 16.175807 -2.745870
LeftShoulder -8.121042 -24.009894 -4.852612
LeftArm -22.538383 8.521963 -75.711051
LeftForeArm 10.220885 -0.000000 31.452050
LeftHand 0.525924 -0.000000 4.472196
LeftHandThumb1 -26.253704 0.000000 33.147579
RightShoulder -0.233261 -11.081265 2.932935
RightArm 19.978191 -16.188454 55.658526
RightForeArm -26.321836 -0.000000 26.869492
RightHand -0.323969 -0.000000 2.462775
RightHandThumb1 -24.326973 -0.000000 -32.862282
LeftUpLeg -10.573828 18.533625 18.977251
LeftLeg -0.059529 -0.000000 0.000000
LeftFoot 5.380454 24.461134 -9.660052
LeftToeBase 26.306483 -0.000000 -0.000000
RightUpLeg -36.608321 -22.046387 -0.047714
RightLeg 46.033060 -0.000000 -0.000000
RightFoot -38.463412 -26.482853 18.439769
RightToeBase 23.972207 -0.000000 -0.000000
1393
root 31.724608 33.537999 -18.582763 -170.723335 1.506398 -185.468736
Spine 8.217171 2.174298 0.981918
Head 12.696123 16.097430 -2.652443
LeftShoulder -8.194740 -23.853815 -4.762507
LeftArm -22.559137 8.100265 -75.690962
LeftForeArm 10.478749 -0.000000 31.215969
LeftHand 0.290622 -0.000000 3.845854
LeftHandThumb1 -26.253704 0.000000 33.147579
RightShoulder -0.432871 -11.128341 3.046459
RightArm 19.720320 -15.198806 56.510360
RightForeArm -26.231774 -0.000000 26.006027
RightHand -0.739853 -0.000000 2.323920
RightHandThumb1 -24.326973 -0.000000 -32.862282
LeftUpLeg -10.756093 18.530669 18.055657
LeftLeg -0.041909 -0.000000 0.000000
LeftFoot 4.451767 24.403431 -10.193657
LeftToeBase 25.907008 -0.000000 -0.000000
RightUpLeg -35.767693 -22.070407 -0.325102
RightLeg 44.513169 -0.000000 -0.000000
RightFoot -37.732098 -26.758534 18.332514
RightToeBase 23.934725 -0.000000 -0.000000
1394
root 31.673162 33.727540 -18.605689 -170.753136 1.315319 -185.533049
Spine 8.095846 2.270482 0.904529
Head 13.129107 16.026936 -2.646694
LeftShoulder -8.251654 -23.855019 -4.675223
LeftArm -22.750923 7.767379 -75.687523
LeftForeArm 10.715399 -0.000000 30.964853
LeftHand 0.255921 -0.000000 3.379224
LeftHandThumb1 -26.253704 0.000000 33.147579
RightShoulder -0.592003 -11.049075 3.105035
RightArm 19.303006 -14.303354 57.373333
RightForeArm -26.126554 -0.000000 25.315957
RightHand -1.125443 0.000000 2.181423
RightHandThumb1 -24.326973 -0.000000 -32.862282
LeftUpLeg -10.810157 18.442784 17.268019
LeftLeg 0.030501 -0.000000 -0.000000
LeftFoot 3.603753 24.255149 -10.682796
LeftToeBase 25.666757 -0.000000 -0.000000
RightUpLeg -34.828342 -22.003631 -0.567969
RightLeg 42.957909 -0.000000 -0.000000
RightFoot -36.987609 -27.037686 18.267445
RightToeBase 23.856519 -0.000000 -0.000000
